<svg width="100" height="100" viewBox="0 0 100 100" xmlns="http://www.w3.org/2000/svg">
  <defs>
    <!-- Warm mango gradient -->
    <linearGradient id="mangoGradient" x1="0%" y1="0%" x2="100%" y2="100%">
      <stop offset="0%" stop-color="#FFA726"/> <!-- Warm orange -->
      <stop offset="100%" stop-color="#FFEE58"/> <!-- Soft yellow -->
    </linearGradient>
    
    <!-- Natural green leaf -->
    <linearGradient id="leafGradient" x1="0%" y1="0%" x2="100%" y2="100%">
      <stop offset="0%" stop-color="#C8E6C9"/> <!-- Pale green -->
      <stop offset="100%" stop-color="#A5D6A7"/> <!-- Light sage -->
    </linearGradient>
    
    <!-- Subtle shadow -->
    <filter id="softShadow" x="-20%" y="-20%" width="140%" height="140%">
      <feDropShadow dx="1" dy="2" stdDeviation="2" flood-color="rgba(0,0,0,0.1)"/>
    </filter>
  </defs>

  <!-- Mango body -->
  <path d="M50 15C30 15 15 35 15 50c0 20 20 35 35 35s35-15 35-35c0-15-15-35-35-35z"
        fill="url(#mangoGradient)"
        filter="url(#softShadow)"
        stroke="#E65100"
        stroke-width="1"
        stroke-opacity="0.5"/>

  <!-- Natural highlight -->
  <ellipse cx="65" cy="30" rx="12" ry="6" fill="white" fill-opacity="0.2"/>

  <!-- Leaf -->
  <path d="M50 10c15-7 25 0 20 15-5 7-15 7-20 0z"
        fill="url(#leafGradient)"
        stroke="#81C784"
        stroke-width="1"
        transform="rotate(-10 50 10)"/>

  <!-- Stem -->
  <path d="M48 5c0-3 4-3 4 0v12"
        stroke="#4E342E"
        stroke-width="2"
        stroke-linecap="round"
        fill="none"/>
</svg>